<svg width="16" height="16" viewBox="0 0 16 16" fill="none" xmlns="http://www.w3.org/2000/svg">
<rect width="16" height="16" fill="#0F1B2D"/>
<path d="M4.08522 12.975C4.82809 12.975 5.35871 12.3833 5.35871 11.6653C5.35871 10.9473 4.82809 10.3756 4.08522 10.3756C3.36225 10.3756 2.825 10.9473 2.825 11.6653C2.825 12.3833 3.36225 12.975 4.08522 12.975Z" fill="#ECEDEE"/>
<path d="M8.70606 3.33531C8.70606 3.04944 8.56014 2.85 8.2683 2.85C8.08259 2.85 7.89024 2.89654 7.49227 3.05609L6.41777 3.48157C6.0795 3.61453 5.97337 3.76743 5.97337 3.98682C5.97337 4.17296 6.04634 4.28598 6.24532 4.399L6.4045 4.43224C6.56369 4.51202 6.62338 4.60509 6.62338 4.9242V11.2465C6.62338 11.6387 6.57032 11.7451 6.43767 11.8182L6.31828 11.8714C6.13919 11.9977 6.05297 12.1307 6.05297 12.3501C6.05297 12.6359 6.23205 12.8022 6.53053 12.8022H8.79229C9.06423 12.8022 9.22342 12.6359 9.22342 12.3501C9.22342 12.1839 9.15046 12.0443 9.0178 11.9379L8.88515 11.8714C8.74586 11.785 8.70606 11.6653 8.70606 11.2465V8.71359L8.71933 8.70694C9.02444 8.42108 9.27648 8.30806 9.52189 8.30806C9.95302 8.30806 10.1387 8.60722 10.2117 9.21884L10.477 11.2997C10.5234 11.6653 10.4438 11.785 10.3046 11.8714L10.1719 11.9379C10.0326 12.031 9.95965 12.1772 9.95965 12.3501C9.95965 12.6359 10.1188 12.8022 10.3908 12.8022H12.6724C12.9643 12.8022 13.15 12.6359 13.15 12.3501C13.15 12.1307 13.0439 12.0044 12.8781 11.8714L12.752 11.8182C12.626 11.7385 12.6061 11.6321 12.5663 11.2465L12.2413 8.41443C12.1286 7.37068 11.7173 6.77236 10.7556 6.77236C10.1255 6.77236 9.51526 7.06487 8.70606 7.83605V3.33531Z" fill="#ECEDEE"/>
</svg>
