<?xml version="1.0" standalone="no"?>
<!DOCTYPE svg PUBLIC "-//W3C//DTD SVG 20010904//EN"
 "http://www.w3.org/TR/2001/REC-SVG-20010904/DTD/svg10.dtd">
<svg version="1.0" xmlns="http://www.w3.org/2000/svg"
 width="700.000000pt" height="700.000000pt" viewBox="0 0 700.000000 700.000000"
 preserveAspectRatio="xMidYMid meet">
<metadata>
Created by potrace 1.14, written by Peter Selinger 2001-2017
</metadata>
<g transform="translate(0.000000,700.000000) scale(0.100000,-0.100000)"
fill="#000000" stroke="none">
<path d="M3525 6583 c-108 -109 -160 -188 -256 -383 -49 -102 -102 -210 -117
-240 -15 -30 -35 -56 -44 -58 -16 -3 -18 5 -18 65 -1 37 -7 85 -15 107 -11 33
-11 44 1 79 16 44 58 262 56 287 -4 44 -15 91 -23 96 -19 12 -67 -38 -129
-135 -36 -55 -70 -100 -76 -101 -15 0 -57 -49 -86 -100 -14 -25 -63 -128 -108
-230 -75 -168 -84 -193 -92 -275 -8 -87 -17 -106 -51 -118 -6 -2 -4 -13 5 -28
22 -34 30 -119 12 -119 -8 0 -45 30 -84 66 l-69 66 -48 -7 c-45 -6 -52 -4 -96
30 -53 41 -70 38 -61 -9 5 -28 1 -37 -26 -59 -17 -15 -38 -27 -46 -27 -8 0
-34 20 -58 45 -58 59 -71 58 -82 -6 l-9 -52 -43 37 c-45 37 -66 44 -78 25 -8
-13 -170 -89 -189 -89 -8 0 -23 -12 -35 -27 l-21 -27 -47 17 c-26 9 -59 17
-74 17 -24 0 -28 -4 -28 -30 l0 -31 -30 16 c-36 19 -74 19 -89 1 -9 -10 -27
-13 -69 -9 -50 4 -71 0 -167 -37 -87 -33 -132 -44 -215 -52 -106 -10 -170 -28
-170 -47 0 -14 11 -14 46 -1 33 13 44 6 15 -9 -39 -21 -229 -33 -323 -20 -47
6 -98 9 -112 5 -34 -8 -34 -36 -1 -36 29 0 81 -20 110 -44 30 -24 4 -36 -80
-36 -38 0 -124 -7 -190 -15 -66 -8 -141 -15 -167 -15 -46 0 -48 -1 -48 -28 0
-23 7 -32 36 -45 45 -22 43 -51 -4 -55 l-32 -3 1 -837 c0 -507 4 -825 10 -807
5 17 26 50 48 75 l38 45 7 -51 c10 -73 -7 -150 -54 -243 -22 -44 -40 -85 -40
-91 0 -21 29 -8 60 27 45 51 75 119 105 243 14 58 35 138 46 179 13 47 20 99
19 140 -3 90 -3 88 28 96 15 3 38 13 51 22 l25 16 -30 23 c-26 22 -27 24 -8
24 31 0 50 26 34 45 -16 19 -13 19 60 -2 59 -16 59 -16 95 8 19 13 38 34 41
46 4 13 1 67 -5 120 -7 63 -8 109 -2 130 7 23 5 46 -6 80 -31 98 9 195 140
337 77 84 87 102 66 123 -7 7 3 12 35 17 53 8 61 16 41 42 -22 30 -19 33 42
36 55 3 59 5 82 40 16 25 36 41 60 49 20 6 70 30 111 52 47 25 96 44 130 48
41 6 61 15 78 34 26 30 28 50 7 59 -20 7 -19 22 2 31 10 3 61 10 113 15 100 9
129 17 170 50 14 11 49 24 79 30 67 13 100 33 114 71 13 32 29 35 78 15 40
-16 59 -11 59 13 0 27 9 30 45 15 41 -17 163 -18 234 -3 l51 11 -6 54 c-8 64
3 69 56 24 26 -23 44 -30 76 -30 123 0 120 2 297 -175 89 -89 170 -164 180
-168 10 -4 17 -17 17 -31 0 -18 9 -29 37 -43 32 -15 42 -29 69 -95 74 -180
115 -212 146 -115 l16 52 -28 25 c-16 14 -67 75 -114 136 -89 116 -141 178
-265 314 -67 73 -72 82 -53 87 15 3 22 13 22 29 0 54 76 21 177 -78 52 -52 76
-69 88 -64 10 3 24 1 31 -5 21 -17 17 -31 -5 -19 -25 13 -36 -2 -21 -31 9 -15
19 -20 36 -16 13 2 24 3 24 2 0 -1 5 -28 10 -61 6 -32 13 -74 16 -91 3 -22 22
-49 53 -81 38 -36 53 -61 66 -105 18 -62 30 -73 69 -63 17 4 28 17 36 41 13
40 27 43 63 15 32 -25 52 -26 41 -2 -4 9 -9 35 -11 57 -8 80 -10 85 -46 83
-30 -3 -34 1 -63 59 -17 34 -60 97 -96 140 -77 92 -94 121 -80 135 16 16 41
-3 125 -93 72 -76 79 -81 94 -66 15 15 12 25 -39 134 -53 111 -128 319 -128
353 0 8 9 44 20 78 11 35 20 78 20 95 0 18 13 60 29 93 43 91 255 446 280 468
20 19 23 19 39 3 50 -50 20 -447 -49 -654 -23 -69 -30 -77 -60 -68 -51 16 -46
99 21 344 40 143 49 211 30 211 -5 0 -28 -37 -51 -82 -23 -46 -65 -115 -95
-153 -80 -106 -98 -162 -98 -321 -1 -127 0 -132 27 -173 31 -46 80 -81 115
-81 25 0 27 -8 11 -44 -10 -22 -8 -29 15 -57 23 -27 26 -37 20 -75 -5 -33 -2
-51 10 -69 22 -33 32 -32 45 5 5 17 12 30 15 30 2 0 14 -16 26 -35 26 -43 38
-44 75 -5 16 17 39 30 51 30 23 0 48 19 57 42 2 7 8 10 12 6 5 -5 0 -17 -10
-28 -17 -19 -15 -50 4 -50 16 0 62 61 68 91 6 33 2 33 115 14 76 -12 148 -37
148 -50 0 -2 -18 -9 -41 -15 -22 -6 -46 -13 -54 -16 -8 -3 -16 4 -20 16 -6 19
-12 21 -41 16 -18 -4 -63 -19 -100 -34 -67 -27 -91 -54 -74 -82 7 -11 21 -5
64 25 59 40 93 40 41 -1 -70 -55 -285 -213 -340 -251 -33 -23 -68 -51 -77 -62
-11 -12 -30 -21 -47 -21 -19 0 -49 -16 -92 -51 -35 -28 -76 -57 -91 -65 -19
-10 -28 -22 -28 -39 0 -40 -20 -31 -72 33 -10 12 -29 22 -43 22 -35 0 -33 -37
4 -117 28 -58 28 -62 13 -85 -13 -18 -17 -47 -17 -133 -1 -92 -5 -120 -24
-168 -26 -63 -21 -86 10 -47 45 57 91 153 125 261 20 63 40 117 43 122 4 4 18
-4 30 -17 23 -24 23 -28 12 -101 -17 -119 -43 -181 -196 -480 -148 -290 -193
-397 -244 -578 -51 -183 -73 -340 -80 -579 -6 -222 -11 -248 -46 -234 -15 5
-16 30 -13 228 3 219 3 224 31 282 15 32 27 62 27 66 0 4 -11 12 -25 18 -22
10 -28 8 -52 -18 -14 -17 -31 -30 -36 -30 -10 0 -5 161 9 304 9 91 -5 82 -62
-40 -35 -76 -47 -94 -65 -94 -22 0 -23 18 -4 63 11 27 -18 21 -47 -10 -37 -41
-45 -59 -58 -148 -12 -83 -41 -165 -59 -165 -5 0 -17 24 -26 53 -10 28 -22 57
-27 62 -16 17 -34 -20 -47 -96 -6 -39 -23 -93 -36 -119 -28 -55 -30 -80 -13
-145 11 -40 10 -48 -9 -82 -11 -21 -28 -63 -38 -93 -23 -71 -57 -139 -86 -169
l-23 -25 -6 25 c-9 37 -37 36 -54 -3 -8 -18 -17 -41 -20 -51 -3 -10 -15 -17
-31 -17 -29 0 -33 -14 -7 -29 15 -9 15 -10 0 -11 -9 0 -18 6 -21 13 -3 8 -12
5 -30 -11 -25 -24 -25 -24 -10 -77 15 -53 15 -54 -16 -118 -17 -35 -31 -69
-31 -75 0 -6 -10 -12 -22 -14 -21 -3 -23 -8 -20 -53 3 -42 -2 -58 -29 -100
-18 -27 -65 -111 -104 -184 -92 -173 -117 -184 -80 -37 38 149 77 254 357 971
80 204 138 368 138 390 0 8 -5 15 -11 15 -6 0 -2 8 9 18 30 25 94 187 86 217
-4 14 0 33 10 47 19 26 21 65 4 70 -21 7 1 39 38 54 74 31 116 65 156 130 22
35 44 64 49 64 4 0 11 -17 14 -37 18 -109 24 -123 55 -123 31 0 80 66 80 108
0 28 35 110 134 314 74 152 150 300 170 329 38 56 44 91 24 134 -16 36 10 87
63 122 60 40 112 91 104 103 -12 19 -46 10 -82 -24 l-37 -33 -15 31 c-17 32
-31 36 -83 21 -25 -6 -29 -3 -58 54 -16 34 -35 61 -40 61 -6 0 -10 -16 -10
-35 0 -43 -8 -44 -45 -5 -53 55 -76 24 -32 -41 40 -59 59 -133 47 -179 -6 -22
-17 -40 -24 -40 -8 0 -24 25 -37 55 -25 59 -38 70 -64 51 -17 -12 -17 -15 5
-44 18 -25 23 -44 23 -99 0 -37 -3 -87 -7 -110 -8 -40 -7 -43 14 -43 37 0 17
-43 -64 -139 -40 -47 -100 -125 -135 -173 -64 -90 -137 -170 -173 -189 -19
-10 -20 -9 -14 17 3 16 9 45 12 64 l5 35 -26 -30 c-40 -47 -108 -171 -165
-306 -29 -68 -62 -141 -72 -162 -18 -36 -21 -38 -37 -23 -10 9 -22 16 -28 16
-16 0 -41 -43 -69 -116 -13 -36 -30 -75 -38 -87 -8 -12 -17 -36 -21 -54 -5
-28 -3 -32 17 -35 30 -4 34 -37 18 -138 -20 -124 -57 -225 -156 -427 -70 -142
-104 -226 -134 -330 -78 -265 -146 -408 -164 -345 -16 54 -16 110 -2 152 8 25
12 48 7 53 -12 12 -79 -2 -96 -20 -13 -12 -13 -19 0 -50 18 -43 12 -53 -51
-83 -43 -21 -44 -23 -38 -59 8 -48 -17 -98 -52 -107 -26 -7 -28 -21 -9 -66 5
-12 -4 -23 -34 -42 -23 -15 -41 -31 -41 -37 0 -6 11 -24 25 -41 35 -41 32 -65
-9 -82 -44 -18 -51 -32 -32 -61 23 -36 21 -38 -35 -30 l-50 7 20 -41 c12 -22
21 -48 21 -57 0 -17 -158 -301 -223 -399 -22 -34 -48 -59 -82 -77 -68 -36 -72
-41 -91 -104 -12 -44 -23 -60 -48 -75 -31 -18 -56 -55 -56 -81 0 -6 12 -26 26
-45 32 -42 28 -67 -11 -71 -17 -2 -38 -13 -48 -25 -13 -16 -20 -18 -24 -9 -13
31 -72 82 -96 82 -31 0 -42 26 -28 63 8 19 6 28 -5 38 -10 8 -11 15 -3 25 6 7
9 23 7 36 -2 18 -10 24 -35 26 -39 4 -53 21 -122 159 -28 56 -60 117 -71 135
l-20 33 0 -437 0 -438 354 0 353 0 205 273 c520 692 698 955 923 1365 43 79
89 154 102 168 13 14 28 45 33 69 6 25 36 102 69 172 32 71 72 157 88 193 16
36 51 88 76 115 27 29 54 70 62 96 9 25 31 64 50 86 59 69 128 89 200 59 29
-12 35 -20 35 -45 0 -16 -4 -33 -10 -36 -6 -3 -10 -21 -10 -38 0 -59 21 -110
60 -147 21 -19 47 -54 59 -77 26 -52 67 -86 90 -74 9 4 35 11 59 14 24 3 51
12 61 21 30 27 70 20 107 -19 18 -19 39 -35 47 -35 8 0 20 -13 26 -30 11 -33
14 -35 42 -20 15 9 42 0 136 -44 65 -29 154 -66 198 -81 46 -16 89 -38 100
-51 24 -27 43 -31 51 -9 8 21 31 19 61 -5 28 -21 53 -26 53 -10 0 11 113 13
172 4 28 -5 39 -13 46 -34 12 -34 63 -57 95 -43 29 13 58 3 222 -79 139 -70
220 -98 282 -98 21 0 63 -12 93 -26 30 -14 73 -31 95 -38 29 -8 41 -18 43 -34
2 -11 17 -35 33 -53 30 -32 27 -32 114 -17 14 2 21 -3 23 -19 4 -26 27 -36 52
-23 30 16 158 -37 202 -85 20 -21 28 -24 54 -16 23 6 40 5 63 -7 27 -12 31
-19 26 -41 -6 -28 26 -91 47 -91 6 0 34 -24 62 -54 58 -62 97 -77 258 -99 85
-12 101 -18 134 -46 50 -45 120 -74 144 -61 10 5 41 15 69 21 67 14 148 74
282 208 96 97 111 117 162 220 l57 114 0 276 c0 152 -4 281 -8 286 -5 6 -26
51 -47 100 -46 105 -104 211 -151 276 -19 26 -40 60 -47 77 -7 16 -45 60 -85
97 l-72 67 -10 -27 c-5 -14 -10 -30 -10 -35 0 -5 -9 -15 -20 -23 -19 -13 -19
-14 5 -47 14 -19 25 -38 25 -42 0 -4 -27 -8 -60 -8 -57 0 -60 1 -50 19 13 25
13 27 -6 46 -12 12 -19 13 -30 4 -40 -33 14 -107 142 -191 39 -25 91 -64 116
-85 25 -22 58 -45 74 -51 23 -10 39 -32 72 -100 23 -49 42 -91 42 -94 0 -3
-18 -8 -41 -11 -41 -5 -81 -34 -102 -72 -5 -11 -13 -69 -16 -130 -7 -135 -17
-142 -84 -55 -48 62 -63 71 -73 45 -12 -32 9 -68 91 -155 47 -49 85 -94 85
-100 0 -5 -14 -10 -31 -10 l-30 0 40 -74 c62 -111 55 -158 -31 -202 l-32 -17
-52 56 c-44 48 -150 186 -259 340 -17 24 -37 68 -43 99 -8 34 -22 64 -37 78
-30 28 -30 34 -4 120 36 120 12 187 -45 125 -18 -19 -27 -43 -31 -83 -3 -31
-10 -67 -15 -79 -11 -26 -30 -31 -30 -9 0 24 -13 25 -70 5 -76 -27 -109 -25
-150 11 -30 25 -43 29 -96 30 -34 0 -76 -3 -94 -6 -32 -7 -33 -12 -15 -57 6
-15 1 -17 -35 -17 -39 0 -42 -2 -36 -23 3 -12 6 -25 6 -29 0 -5 7 -8 15 -8 9
0 15 -9 15 -24 0 -19 -7 -25 -35 -30 -48 -9 -44 -28 15 -66 64 -41 64 -54 1
-45 -55 7 -70 -4 -41 -30 28 -25 25 -34 -15 -51 -64 -26 -261 -14 -281 18 -5
8 9 9 49 5 31 -3 59 -1 62 4 9 13 -39 58 -79 74 -19 8 -86 28 -148 45 -171 46
-200 59 -192 83 5 17 3 19 -21 13 -23 -6 -36 0 -74 32 -54 46 -83 62 -108 62
-35 0 -44 20 -23 48 11 14 20 35 20 48 0 30 11 30 58 1 20 -13 105 -59 187
-101 119 -61 162 -78 208 -83 46 -5 57 -3 57 9 0 8 -11 20 -25 26 -31 14 -32
38 -2 46 25 7 12 16 -191 134 -107 62 -212 151 -212 179 0 8 -14 28 -31 44
l-32 30 27 27 c37 39 34 59 -11 71 -21 6 -49 11 -63 11 -14 0 -35 3 -48 6 -18
5 -20 9 -11 20 24 29 -37 8 -98 -32 -27 -18 -39 -20 -70 -14 -48 11 -57 5 -37
-26 l16 -24 -45 0 c-29 0 -49 -5 -54 -14 -12 -21 -139 -86 -168 -86 -19 0 -31
-10 -47 -35 -19 -34 -22 -35 -39 -19 -27 24 -42 8 -35 -37 5 -34 4 -39 -13
-39 -27 0 -159 117 -182 162 -23 45 -33 52 -49 33 -22 -27 -46 -16 -79 35 -40
62 -46 66 -78 45 -31 -21 -43 -16 -130 49 -61 44 -63 47 -63 91 0 38 -4 48
-30 67 -16 12 -33 30 -36 41 -3 11 -30 46 -60 78 -30 32 -54 65 -54 73 0 8
-15 23 -34 34 -31 18 -35 26 -42 78 -5 47 -3 64 12 92 10 20 18 43 16 52 -3
16 36 170 45 180 2 3 12 -6 22 -19 11 -14 23 -21 30 -17 21 13 138 260 167
350 17 57 41 106 66 139 42 57 45 80 10 85 -18 3 -21 8 -16 30 14 59 47 134
70 162 20 24 24 36 19 64 -6 27 -2 42 14 65 12 16 27 55 35 88 9 41 18 58 29
57 13 -1 14 12 10 97 -4 62 -2 99 4 99 5 0 65 -82 132 -181 99 -146 121 -186
116 -206 -8 -34 -29 -38 -64 -12 -18 13 -36 19 -47 15 -15 -6 -12 -12 21 -46
41 -42 71 -51 77 -24 2 14 8 12 36 -10 37 -32 39 -42 12 -71 -23 -24 -18 -51
10 -60 10 -3 21 -12 24 -20 7 -20 26 -19 26 0 0 40 39 -2 195 -212 94 -124
217 -283 275 -352 159 -192 501 -610 543 -665 20 -27 37 -57 37 -67 0 -17 69
-82 175 -163 80 -62 145 -129 145 -148 0 -36 -41 -17 -118 54 -30 26 -60 48
-68 48 -74 0 176 -233 296 -275 65 -23 83 -19 144 31 l56 47 64 -62 c64 -61
79 -70 91 -51 8 13 -62 88 -114 122 -34 21 -57 28 -96 28 -51 0 -52 0 -61 37
-7 29 -21 46 -58 73 -112 80 -230 179 -374 313 -174 161 -220 213 -204 229 8
8 23 0 53 -26 45 -42 104 -70 125 -62 8 3 14 19 14 36 0 24 7 35 30 48 33 19
34 22 20 111 -16 92 -38 127 -148 232 -54 52 -123 123 -152 158 l-53 64 16 29
c9 16 17 42 17 58 0 16 8 42 18 59 15 28 15 33 2 41 -8 5 -29 10 -45 10 -53 0
-77 -44 -30 -56 31 -8 31 -11 0 -36 -63 -49 -48 -158 22 -158 21 0 23 -5 23
-46 0 -51 7 -68 63 -142 34 -45 41 -61 41 -102 1 -55 -13 -75 -60 -89 -55 -16
-84 7 -216 170 -68 85 -166 206 -218 269 -117 142 -157 202 -207 310 -22 47
-99 173 -171 281 -126 188 -152 233 -152 265 0 35 133 -29 234 -112 61 -50 96
-67 96 -45 0 5 -12 40 -26 77 -14 38 -33 90 -40 116 -11 35 -21 49 -37 53 -12
2 -59 11 -105 19 -109 20 -180 53 -247 117 -70 66 -99 112 -91 144 9 36 280
304 353 348 33 20 66 37 72 37 6 0 11 -13 11 -30 0 -16 5 -30 10 -30 6 0 10
-10 10 -23 0 -42 94 -167 125 -167 22 0 48 50 41 81 -5 27 -3 29 27 29 52 0
134 -26 185 -58 26 -17 61 -33 78 -37 18 -3 40 -15 50 -26 11 -13 30 -19 57
-19 42 0 89 -27 108 -61 7 -14 7 -30 -1 -54 -9 -29 -19 -37 -53 -46 -23 -6
-48 -13 -55 -15 -23 -7 -9 -30 38 -66 46 -34 110 -119 110 -144 0 -23 -23 -16
-46 14 -19 23 -29 27 -71 26 -65 -2 -343 -92 -350 -113 -2 -9 -13 -35 -23 -58
l-20 -43 22 -11 c27 -15 112 -5 181 21 48 18 53 19 64 4 15 -20 -7 -81 -28
-76 -64 15 -68 15 -74 -11 -8 -30 15 -77 50 -105 34 -27 108 -42 205 -42 68 0
83 -3 98 -20 62 -73 71 -80 104 -80 54 0 62 10 56 77 -3 33 -15 78 -27 101
-12 23 -21 48 -21 56 0 17 38 56 55 56 15 0 43 -102 51 -189 7 -79 8 -80 86
-143 53 -42 137 -212 150 -301 17 -123 149 -349 184 -315 11 12 -32 203 -60
264 -14 31 -26 69 -26 85 0 25 4 29 30 29 28 0 29 1 18 25 -15 32 -4 42 27 25
36 -19 54 0 32 34 -29 43 -61 68 -84 63 -16 -3 -22 2 -26 22 -3 14 -40 82 -81
150 -41 69 -105 193 -142 275 -37 83 -93 203 -124 266 -43 86 -57 123 -53 143
4 23 -2 35 -36 69 -22 23 -41 45 -41 49 0 5 -24 25 -53 46 -63 45 -210 167
-244 203 -13 14 -55 65 -93 114 -57 74 -66 91 -55 100 23 17 -3 57 -56 86 -26
14 -74 45 -108 70 -34 25 -83 52 -108 61 -99 33 -53 53 91 40 98 -10 160 -34
235 -92 34 -27 41 -24 41 16 0 30 -5 37 -47 61 -25 15 -69 34 -97 41 -88 23
-88 47 0 58 100 12 186 7 248 -14 70 -25 76 -25 76 -7 0 24 -49 55 -122 76
-39 12 -83 33 -102 50 -42 37 -49 37 -63 0 -13 -35 -52 -60 -157 -101 -56 -21
-91 -29 -115 -26 -56 8 -131 38 -131 53 0 18 17 18 70 -1 52 -18 116 -19 150
-2 29 14 40 47 16 47 -20 0 -20 14 -1 34 14 14 21 13 66 -4 63 -25 73 -25 66
2 -4 14 0 26 11 34 16 11 15 14 -3 34 -32 36 -54 42 -162 50 -57 4 -110 13
-118 20 -9 8 -14 27 -13 52 3 77 -50 78 -132 3 -62 -57 -84 -66 -94 -39 -11
28 -7 146 11 305 16 145 16 164 1 270 -17 119 -15 152 18 271 20 72 15 88 -30
88 -30 0 -45 -10 -101 -67z m-535 -401 c0 -4 -7 -62 -16 -127 -15 -115 -14
-286 2 -372 l6 -32 -31 12 c-27 10 -37 9 -62 -6 -95 -56 -87 -53 -116 -37 -22
13 -29 24 -31 56 -4 48 43 173 88 239 16 24 41 77 54 119 27 83 41 112 64 139
15 17 42 23 42 9z m820 -561 c0 -11 5 -23 10 -26 22 -13 8 -25 -29 -25 -36 0
-39 2 -34 23 12 45 53 67 53 28z m-2786 -480 c13 -20 -29 -34 -114 -39 -78 -4
-90 -3 -90 11 0 10 11 19 28 23 15 3 32 7 37 9 22 8 134 4 139 -4z m-516 -121
c35 -11 88 -20 118 -20 46 0 54 -3 54 -19 0 -24 -19 -31 -89 -31 -94 0 -211
42 -211 75 0 21 51 19 128 -5z m-148 -120 c22 -14 10 -19 -71 -30 -108 -14
-119 -13 -119 9 0 11 8 22 18 24 32 9 157 7 172 -3z m4164 -198 c2 -4 1 -14
-4 -22 -7 -11 -12 -12 -21 -3 -6 6 -8 16 -5 22 8 13 23 14 30 3z m-1448 -1084
c-3 -17 -17 -56 -31 -86 -30 -66 -50 -62 -42 10 7 59 35 108 60 108 17 0 19
-5 13 -32z m-1243 -565 c-7 -69 -53 -99 -53 -35 0 31 36 96 49 88 5 -3 6 -27
4 -53z m1002 -340 c10 -15 32 -40 49 -55 26 -22 29 -30 20 -45 -6 -10 -23 -18
-38 -18 -24 0 -31 8 -57 68 -33 78 -34 84 -17 124 l11 28 7 -37 c4 -20 15 -49
25 -65z m2345 -598 c24 -24 41 -47 38 -51 -19 -18 -108 45 -108 77 0 31 23 22
70 -26z m-1386 -8 c25 -18 14 -50 -30 -84 -29 -22 -40 -25 -62 -17 -39 14 -35
44 8 58 27 9 34 16 33 34 -3 26 22 30 51 9z m1836 -296 c0 -85 11 -106 70
-136 56 -28 62 -42 25 -51 -17 -4 -39 2 -71 21 -25 15 -47 25 -49 23 -1 -1
-10 -18 -19 -35 -29 -58 -55 -42 -85 55 -11 36 -35 82 -57 108 -29 37 -34 48
-23 55 19 12 59 11 59 -1 0 -14 38 -11 80 5 65 25 70 22 70 -44z m-130 -381
c21 -11 41 -24 45 -30 3 -5 16 -10 28 -10 11 0 33 -12 49 -27 27 -25 28 -26
47 -9 38 34 59 -16 22 -53 -16 -16 -29 -18 -87 -14 -38 3 -77 10 -87 15 -23
12 -99 127 -91 139 8 14 32 11 74 -11z m-4944 -972 c-10 -64 -28 -77 -47 -35
-15 32 4 77 32 77 20 0 21 -4 15 -42z"/>
<path d="M2369 5081 c-31 -10 -78 -30 -105 -44 -27 -14 -101 -51 -164 -81
-167 -80 -240 -150 -300 -291 l-19 -45 20 0 c12 0 23 8 26 19 3 13 17 21 45
25 22 4 73 24 113 45 70 37 106 43 121 20 12 -21 36 -6 56 35 23 48 51 66 101
66 24 0 42 11 78 46 l47 46 21 -21 c12 -12 21 -34 21 -51 0 -46 28 -38 51 16
22 48 20 74 -6 74 -8 0 -15 4 -15 10 0 13 32 29 55 27 11 -1 21 5 22 13 5 24
-35 80 -57 80 -11 0 -20 7 -20 15 0 19 -20 18 -91 -4z m-311 -247 c-8 -9 -26
-14 -39 -12 l-24 5 25 11 c14 6 32 11 40 11 12 1 12 -2 -2 -15z"/>
<path d="M1764 4995 c-7 -29 -5 -28 -40 -15 -36 14 -164 -23 -195 -56 -16 -17
-34 -24 -63 -25 -70 -2 -90 -11 -97 -48 -10 -47 -23 -57 -54 -43 -47 22 -72
15 -107 -29 l-33 -41 -57 6 c-54 6 -58 5 -58 -13 0 -11 -12 -28 -26 -38 -14
-10 -45 -34 -68 -54 -22 -20 -61 -47 -86 -59 -117 -59 -263 -185 -274 -238 -4
-16 -18 -44 -32 -63 -23 -31 -24 -40 -24 -166 0 -120 2 -135 20 -153 37 -37
80 -17 96 44 4 16 15 31 25 33 10 3 21 13 24 22 8 26 95 107 176 165 56 39 75
59 79 81 5 28 13 34 171 119 46 25 146 109 184 155 11 14 31 45 45 70 33 61
113 105 179 98 43 -5 48 -2 125 63 45 37 91 81 103 98 13 18 35 32 55 36 80
16 94 70 15 60 -28 -4 -47 -2 -51 5 -12 18 -25 12 -32 -14z m-44 -80 c-16 -19
-40 -20 -40 -1 0 8 10 16 23 18 29 5 32 2 17 -17z m-914 -574 c-9 -16 -21 -33
-27 -37 -18 -11 -4 62 18 95 l18 26 3 -27 c2 -15 -4 -40 -12 -57z m-140 -56
c-7 -29 -26 -34 -26 -7 0 18 20 45 28 37 2 -2 2 -16 -2 -30z m-66 -104 c0 -6
-4 -13 -10 -16 -5 -3 -10 1 -10 9 0 9 5 16 10 16 6 0 10 -4 10 -9z"/>
<path d="M2840 4866 c0 -13 -7 -29 -15 -36 -24 -20 -14 -53 18 -64 47 -17 56
19 25 97 -13 33 -28 35 -28 3z"/>
<path d="M4039 4688 c-1 -7 -1 -17 0 -22 1 -5 0 -15 -3 -23 -5 -11 -10 -11
-26 -3 -33 18 -60 3 -60 -31 0 -61 52 -123 134 -160 76 -33 156 -16 219 46 31
32 34 51 11 76 -11 12 -25 16 -48 12 -21 -3 -52 3 -87 17 -80 32 -84 35 -89
66 -4 20 -12 30 -28 32 -13 2 -22 -2 -23 -10z"/>
<path d="M2892 4654 c-18 -13 -21 -19 -11 -30 24 -29 79 -4 65 31 -7 19 -26
19 -54 -1z"/>
<path d="M2766 4611 c-7 -11 9 -57 22 -65 14 -8 23 21 16 50 -6 24 -28 32 -38
15z"/>
<path d="M3513 4530 c-44 -18 -26 -53 46 -89 69 -35 94 -41 225 -50 95 -7 108
-10 141 -37 73 -58 76 -59 85 -44 5 8 5 22 -1 31 -13 26 -11 39 6 33 26 -11
36 5 21 35 -14 27 -18 28 -114 34 -84 5 -114 12 -202 47 -109 44 -171 56 -207
40z"/>
<path d="M2410 4390 c0 -6 14 -25 30 -42 25 -25 33 -28 45 -18 31 26 11 55
-43 66 -22 4 -32 3 -32 -6z"/>
<path d="M4151 4377 c-52 -14 -71 -37 -52 -61 22 -27 66 -20 96 15 41 50 28
65 -44 46z"/>
<path d="M998 4296 c-21 -16 -24 -46 -5 -46 16 0 47 32 47 48 0 16 -21 15 -42
-2z"/>
<path d="M2449 4244 c-21 -57 -39 -139 -33 -156 3 -10 14 -18 24 -18 22 0 38
42 47 120 4 44 2 58 -11 69 -14 11 -17 9 -27 -15z"/>
<path d="M2291 4143 c-50 -68 -57 -93 -42 -145 16 -52 34 -44 42 20 8 61 15
82 28 82 5 0 8 -27 8 -59 -3 -114 32 -91 40 25 5 76 -6 134 -25 134 -5 0 -27
-25 -51 -57z"/>
<path d="M2170 3888 c0 -51 12 -108 22 -108 4 0 13 11 20 25 9 19 7 34 -6 70
-21 53 -36 58 -36 13z"/>
<path d="M4140 3915 c0 -4 7 -19 15 -35 15 -29 15 -30 -9 -30 -35 0 -42 -18
-18 -48 14 -19 29 -27 50 -27 23 0 43 -11 74 -41 24 -23 68 -58 98 -77 30 -20
65 -44 77 -53 30 -22 48 -13 73 36 25 48 23 62 -10 67 -27 4 -50 21 -50 37 0
6 23 23 50 38 57 32 65 58 24 84 -24 16 -28 16 -83 -11 -67 -32 -82 -29 -203
31 -65 33 -88 40 -88 29z"/>
<path d="M2241 3891 c-18 -33 -14 -53 12 -49 17 2 22 10 22 32 0 35 -20 45
-34 17z"/>
<path d="M3093 3379 c-56 -63 -59 -72 -43 -113 9 -24 7 -26 -18 -26 -42 0 -56
-13 -43 -38 9 -17 18 -20 44 -15 57 10 75 29 97 100 25 81 36 153 24 153 -5
-1 -33 -28 -61 -61z"/>
<path d="M3056 3133 c-25 -51 -66 -163 -66 -183 0 -6 10 -10 22 -8 32 4 62 55
82 138 16 65 16 74 3 88 -14 13 -18 9 -41 -35z"/>
<path d="M5780 3030 c0 -13 37 -50 50 -50 16 0 12 18 -10 40 -22 22 -40 26
-40 10z"/>
<path d="M4246 2924 l7 -48 -27 17 c-44 29 -59 6 -31 -47 17 -32 5 -59 -21
-49 -22 8 -18 -49 8 -102 21 -43 22 -48 7 -73 -9 -15 -24 -41 -34 -58 -20 -33
-15 -84 9 -84 7 0 32 25 55 55 23 30 45 55 49 56 4 0 23 3 42 5 19 2 51 6 70
8 27 2 36 9 43 30 8 25 13 27 43 21 34 -6 34 -5 34 30 0 32 -12 49 -116 158
-64 67 -123 124 -131 125 -12 3 -13 -5 -7 -44z"/>
<path d="M5860 2938 c0 -6 30 -41 67 -77 62 -61 68 -64 71 -43 4 27 -21 59
-82 103 -42 31 -56 36 -56 17z"/>
<path d="M3085 2910 c-20 -39 -20 -90 0 -90 19 0 35 40 35 86 0 42 -14 44 -35
4z"/>
<path d="M3397 2890 c-42 -33 -129 -148 -125 -167 5 -29 28 -26 40 5 9 24 21
33 55 43 48 13 57 25 68 85 8 51 -4 61 -38 34z"/>
<path d="M3213 2856 c-61 -59 -57 -72 17 -68 67 4 90 23 90 75 0 24 -3 27 -20
22 -12 -4 -26 -2 -33 3 -8 6 -25 -3 -54 -32z"/>
<path d="M5887 2794 c-4 -4 -7 -18 -7 -31 0 -16 6 -23 20 -23 11 0 20 6 20 13
0 19 -24 49 -33 41z"/>
<path d="M6025 2753 c8 -36 39 -67 58 -60 30 11 -14 87 -49 87 -13 0 -15 -6
-9 -27z"/>
<path d="M5930 2734 c0 -20 17 -44 32 -44 15 0 8 27 -12 45 -19 18 -20 17 -20
-1z"/>
<path d="M5980 2669 c0 -20 21 -49 35 -49 20 0 19 46 -1 54 -23 9 -34 7 -34
-5z"/>
<path d="M5884 2646 c-7 -20 2 -46 16 -46 13 0 13 47 0 55 -6 3 -13 -1 -16 -9z"/>
<path d="M1920 2458 c1 -18 29 -53 36 -45 11 11 -6 57 -21 57 -8 0 -15 -6 -15
-12z"/>
<path d="M4500 2409 c0 -6 29 -40 65 -74 62 -61 140 -109 157 -99 24 15 -158
184 -199 184 -13 0 -23 -5 -23 -11z"/>
<path d="M4500 2281 c0 -16 284 -246 339 -273 52 -27 91 -36 91 -20 0 4 -33
30 -72 57 -40 28 -123 94 -186 148 -88 75 -120 97 -143 97 -16 0 -29 -4 -29
-9z"/>
</g>
</svg>
