<?xml version="1.0" standalone="no"?>
<!DOCTYPE svg PUBLIC "-//W3C//DTD SVG 20010904//EN"
 "http://www.w3.org/TR/2001/REC-SVG-20010904/DTD/svg10.dtd">
<svg version="1.0" xmlns="http://www.w3.org/2000/svg"
 width="700.000000pt" height="700.000000pt" viewBox="0 0 700.000000 700.000000"
 preserveAspectRatio="xMidYMid meet">
<metadata>
Created by potrace 1.14, written by Peter Selinger 2001-2017
</metadata>
<g transform="translate(0.000000,700.000000) scale(0.100000,-0.100000)"
fill="#000000" stroke="none">
<path d="M2511 6454 c-11 -8 -21 -19 -21 -25 0 -5 -11 -27 -25 -47 -71 -107
-70 -346 1 -651 9 -36 17 -70 18 -76 1 -5 6 -20 10 -33 5 -15 2 -27 -8 -38 -9
-8 -21 -23 -28 -33 -7 -10 -29 -26 -48 -36 -75 -38 -146 -94 -268 -210 -69
-66 -212 -226 -212 -238 0 -7 43 0 172 27 67 15 105 19 101 12 -9 -15 -325
-430 -333 -436 -3 -3 -17 -21 -30 -40 -14 -19 -30 -42 -37 -50 -222 -278 -306
-381 -343 -420 -8 -9 -38 -43 -67 -76 -97 -112 -207 -227 -349 -364 -256 -247
-480 -417 -682 -519 -90 -45 -114 -76 -136 -170 -14 -62 -13 -195 2 -286 6
-33 9 -98 7 -145 -2 -64 3 -107 20 -175 26 -102 78 -221 103 -234 40 -21 467
-171 505 -177 205 -32 413 67 581 278 32 40 45 48 89 57 89 18 146 22 336 26
121 3 201 9 235 19 28 8 179 49 335 91 267 71 289 75 350 69 198 -22 427 24
711 145 l70 30 9 -37 c9 -34 66 -289 75 -337 4 -18 22 -96 31 -135 2 -8 10
-44 18 -80 20 -90 48 -213 97 -430 23 -102 43 -192 45 -200 2 -8 10 -44 19
-80 8 -36 17 -76 20 -90 13 -68 107 -474 110 -478 4 -3 169 81 251 128 17 10
75 41 130 70 127 67 253 134 330 175 81 44 170 91 290 155 55 29 190 101 300
160 110 59 238 128 285 152 92 49 611 327 725 388 104 56 267 142 292 154 13
6 23 14 23 17 0 4 -192 236 -269 324 -31 36 -120 142 -141 169 -8 10 -31 37
-50 60 -19 23 -51 61 -70 85 -19 24 -40 48 -46 55 -6 6 -50 58 -98 116 -48 58
-95 114 -104 125 -9 11 -37 45 -62 75 -25 30 -48 57 -51 60 -3 3 -86 102 -185
220 -98 118 -181 217 -184 220 -3 3 -25 30 -50 60 -25 30 -47 57 -50 60 -3 3
-62 73 -130 155 -69 83 -127 152 -130 155 -3 3 -39 46 -80 95 -70 85 -96 115
-186 212 -22 22 -49 53 -61 67 -89 103 -416 456 -422 456 -4 0 -16 8 -27 18
-10 9 -39 33 -64 52 -25 19 -47 37 -50 40 -3 3 -47 39 -99 80 -52 40 -102 79
-110 86 -9 7 -52 42 -96 77 -71 57 -85 74 -123 149 -43 84 -156 244 -265 372
-31 37 -57 73 -57 79 0 20 -67 153 -104 210 -61 90 -174 197 -211 197 -7 0
-11 -23 -11 -67 1 -63 -10 -198 -19 -233 -2 -8 -6 -49 -10 -90 -3 -41 -8 -88
-11 -104 l-6 -28 -38 43 c-217 253 -310 367 -315 389 -12 47 -64 145 -83 157
-16 9 -24 9 -41 -3z m218 -1938 c41 -10 76 -30 122 -71 63 -57 64 -60 36 -107
-67 -114 -171 -155 -273 -109 -23 10 -51 29 -64 42 -29 31 -80 100 -80 109 0
4 19 28 41 54 43 49 84 75 134 86 33 7 35 7 84 -4z m-2025 -1477 c133 -158
144 -358 26 -492 -89 -101 -212 -125 -279 -55 -22 23 -24 32 -22 114 2 49 4
100 6 114 29 240 94 347 212 349 23 1 38 -7 57 -30z m509 -672 c-170 -113
-304 -200 -318 -207 -6 -3 -37 -23 -70 -46 -93 -63 -95 -62 -19 12 119 115
147 140 230 199 120 87 209 128 287 133 27 2 10 -13 -110 -91z"/>
</g>
</svg>
